<svg width="85" height="96" viewBox="0 0 85 96" fill="none" xmlns="http://www.w3.org/2000/svg">
<path d="M56.5846 19.6922C57.205 20.5911 55.4503 22.2796 54.4536 21.8056C50.8414 20.0877 46.7857 19.1241 42.5001 19.1241C38.2145 19.1241 34.1589 20.0876 30.5467 21.8054C29.55 22.2794 27.7953 20.5909 28.4156 19.692L41.7281 0.401521C42.0975 -0.133842 42.9027 -0.133839 43.2721 0.401525L56.5846 19.6922Z" fill="#7A4CFF"/>
<path d="M64.8873 55.4017C63.9692 56.009 62.2447 54.2911 62.7288 53.3153C64.4834 49.7785 65.4676 45.8076 65.4676 41.6116C65.4676 37.4156 64.4835 33.4448 62.729 29.9081C62.2449 28.9322 63.9695 27.2142 64.8876 27.8216L84.5899 40.8557C85.1367 41.2174 85.1367 42.0057 84.5899 42.3675L64.8873 55.4017Z" fill="#7A4CFF"/>
<path d="M20.1127 27.8213C21.0308 27.214 22.7553 28.9319 22.2712 29.9078C20.5166 33.4445 19.5324 37.4154 19.5324 41.6114C19.5324 45.8074 20.5165 49.7783 22.271 53.315C22.7551 54.2908 21.0305 56.0088 20.1124 55.4015L0.410094 42.3673C-0.1367 42.0056 -0.136697 41.2173 0.410099 40.8555L20.1127 27.8213Z" fill="#7A4CFF"/>
<path d="M43.3456 95.471C43.0121 96.1763 41.9881 96.1763 41.6546 95.471L25.6732 61.673C25.2521 60.7826 26.4774 59.8253 27.3271 60.3455C31.7099 63.0287 36.9157 64.5837 42.5001 64.5837C48.0845 64.5837 53.2902 63.0286 57.673 60.3455C58.5227 59.8253 59.7479 60.7825 59.3269 61.6729L43.3456 95.471Z" fill="#ADDD16"/>
<path d="M58.5258 41.6115C58.5258 50.2773 51.3508 57.3023 42.5 57.3023C33.6492 57.3023 26.4742 50.2773 26.4742 41.6115C26.4742 32.9457 33.6492 25.9207 42.5 25.9207C51.3508 25.9207 58.5258 32.9457 58.5258 41.6115Z" fill="#ADDD16"/>
</svg>
